<?xml version="1.0" standalone="no"?>
<!DOCTYPE svg PUBLIC "-//W3C//DTD SVG 20010904//EN"
 "http://www.w3.org/TR/2001/REC-SVG-20010904/DTD/svg10.dtd">
<svg version="1.0" xmlns="http://www.w3.org/2000/svg"
 width="210.000000pt" height="59.000000pt" viewBox="0 0 210.000000 59.000000"
 preserveAspectRatio="xMidYMid meet">

<g transform="translate(0.000000,59.000000) scale(0.100000,-0.100000)"
fill="#000000" stroke="none">
<path d="M1360 430 c0 -5 7 -10 15 -10 8 0 19 -17 25 -42 6 -24 17 -63 23 -88
l13 -45 83 -3 c87 -3 101 2 101 41 0 24 -17 21 -23 -4 -6 -22 -27 -17 -27 6 0
8 -11 25 -25 39 -14 14 -25 37 -25 51 0 24 -3 25 -54 25 -45 0 -54 3 -59 20
-5 20 -47 29 -47 10z m100 -81 c0 -25 -26 -25 -33 0 -6 24 0 31 19 24 8 -3 14
-14 14 -24z m50 0 c0 -10 -7 -19 -15 -19 -15 0 -21 31 -9 43 11 10 24 -3 24
-24z m-44 -54 c8 -21 -6 -41 -17 -24 -12 19 -11 39 1 39 6 0 13 -7 16 -15z
m44 -5 c0 -11 -4 -20 -10 -20 -5 0 -10 9 -10 20 0 11 5 20 10 20 6 0 10 -9 10
-20z m40 0 c0 -11 -4 -20 -10 -20 -5 0 -10 9 -10 20 0 11 5 20 10 20 6 0 10
-9 10 -20z"/>
<path d="M497 404 c-4 -4 -7 -37 -7 -74 0 -71 -10 -90 -47 -90 -16 0 -23 -6
-23 -20 0 -23 25 -26 65 -8 31 14 47 67 43 140 -3 48 -15 68 -31 52z"/>
<path d="M560 326 c0 -76 2 -86 22 -100 26 -18 119 -22 149 -6 17 9 19 22 19
100 0 72 -3 90 -15 90 -11 0 -15 -18 -17 -77 l-3 -78 -57 -3 -57 -3 -3 78 c-3
65 -6 78 -20 81 -16 3 -18 -6 -18 -82z"/>
<path d="M1017 395 c-9 -8 -32 -42 -52 -75 -20 -33 -38 -60 -41 -60 -2 0 -25
32 -50 70 -30 45 -54 70 -65 70 -17 0 -19 -9 -19 -95 0 -88 2 -95 20 -95 16 0
19 8 22 58 l3 57 35 -57 c20 -34 42 -58 52 -58 10 0 32 25 55 62 l38 62 3 -62
c2 -46 7 -62 17 -62 12 0 15 19 15 94 0 98 -7 117 -33 91z"/>
<path d="M1090 310 c0 -82 3 -100 15 -100 12 0 15 18 15 100 0 82 -3 100 -15
100 -12 0 -15 -18 -15 -100z"/>
<path d="M1247 372 c-37 -59 -87 -149 -87 -156 0 -17 38 -3 48 19 10 22 18 25
66 25 47 0 57 -3 73 -26 11 -14 26 -25 35 -23 12 3 4 24 -36 96 -28 51 -57 95
-64 97 -7 3 -22 -11 -35 -32z m37 -70 c-34 -4 -38 1 -24 29 l12 22 19 -24 c18
-24 18 -24 -7 -27z"/>
<path d="M1432 198 c2 -15 10 -23 23 -23 30 0 27 39 -3 43 -20 3 -23 0 -20
-20z"/>
<path d="M1564 205 c-8 -20 4 -35 27 -35 14 0 19 7 19 25 0 18 -5 25 -20 25
-11 0 -23 -7 -26 -15z"/>
</g>
</svg>
